<?xml version="1.0" encoding="utf-8"?>
<!-- Generator: Adobe Illustrator 16.0.3, SVG Export Plug-In . SVG Version: 6.00 Build 0)  -->
<!DOCTYPE svg PUBLIC "-//W3C//DTD SVG 1.1//EN" "http://www.w3.org/Graphics/SVG/1.1/DTD/svg11.dtd">
<svg version="1.1" id="Layer_1" xmlns="http://www.w3.org/2000/svg" xmlns:xlink="http://www.w3.org/1999/xlink" x="0px" y="0px"
	 width="600px" height="250px" viewBox="0 0 600 250" enable-background="new 0 0 600 250" xml:space="preserve">
<g display="none">
	
		<text transform="matrix(1 0 0 1 64.479 86.1255)" display="inline" fill="#FD6D6D" font-family="'Code-Bold'" font-size="202.6189">Ava</text>
	<polygon display="inline" fill="#FD6D6D" points="116,-37 153,29 90,29 	"/>
	<polygon display="inline" fill="#FD6D6D" points="335,-30 372,36 309,36 	"/>
</g>
<text transform="matrix(1 0 0 1 64.479 86.1255)" display="none" fill="#FD6D6D" font-family="'Code-Bold'" font-size="202.6189">Ava</text>
<g>
	<g>
		<path fill="#0AB3A3" d="M107.697,52.968H92.703L35.766,196.627h22.086c4.458-11.752,42.55-111.037,42.55-111.037l42.348,111.037
			h21.883L107.697,52.968z"/>
		<path fill="#0AB3A3" d="M325.516,52.968h-14.994l-56.937,143.659h22.086c4.458-11.752,42.55-111.037,42.55-111.037l42.348,111.037
			h21.883L325.516,52.968z"/>
		<path fill="#0AB3A3" d="M251.762,54.994h21.883l-56.937,142.038h-14.994L144.777,54.994h22.289l42.145,105.971L251.762,54.994z"/>
		<path display="none" fill="#0AB3A3" d="M343.548,154.887H292.69c-5.471,12.968-12.563,29.988-17.021,41.74h-22.086l56.937-143.659
			h14.994l56.937,143.659h-21.883L343.548,154.887z M300.39,135.638h35.256L318.221,85.59L300.39,135.638z"/>
		<circle fill="#0AB3A3" cx="318" cy="146.001" r="13.5"/>
		<circle fill="#0AB3A3" cx="100" cy="145.001" r="13.5"/>
	</g>
	<g>
		<path fill="#999999" d="M420.812,196.659h-4.182V167.72h17.265v4.183h-13.083v8.155h11.592v4.224h-11.592V196.659z"/>
		<path fill="#999999" d="M449.584,188.132h-10.392c-1.118,2.648-2.566,6.126-3.478,8.527h-4.513l11.634-29.352h3.063l11.635,29.352
			h-4.472L449.584,188.132z M440.766,184.197h7.204l-3.561-10.226L440.766,184.197z"/>
		<path fill="#999999" d="M473.349,175.173c-0.58-2.608-3.395-3.727-5.92-3.685c-1.946,0.041-4.1,0.703-5.259,2.194
			c-0.58,0.745-0.786,1.696-0.704,2.69c0.208,2.981,3.479,3.354,6.584,3.644c3.974,0.497,8.9,1.531,10.019,6.169
			c0.124,0.621,0.207,1.325,0.207,1.904c0,5.59-5.548,8.818-10.765,8.818c-4.471,0-9.895-2.65-10.433-7.825l-0.042-0.787
			l4.224-0.082l0.041,0.621v-0.167c0.289,2.692,3.561,4.1,6.252,4.1c3.104,0,6.499-1.739,6.499-4.719
			c0-0.29-0.041-0.621-0.124-0.994c-0.497-2.195-3.477-2.567-6.375-2.857c-4.513-0.455-9.813-1.448-10.268-7.492v0.041
			c-0.166-1.945,0.331-3.891,1.573-5.506c1.945-2.526,5.424-3.851,8.776-3.851c4.472,0,9.109,2.317,9.854,7.617L473.349,175.173z"/>
		<path fill="#999999" d="M485.478,179.934h12.255V167.72h4.223v28.939h-4.223v-12.586h-12.255v12.586h-4.181V167.72h4.181V179.934z
			"/>
		<path fill="#999999" d="M518.266,171.861h-5.381v20.617h5.381v4.181H503.32v-4.181h5.382v-20.617h-5.382v-4.142h14.945V171.861z"
			/>
		<path fill="#999999" d="M522.363,171.695c2.65-2.691,6.377-4.388,10.434-4.388c4.1,0,7.783,1.696,10.475,4.388
			c2.608,2.69,4.305,6.375,4.305,10.474c0,4.1-1.696,7.784-4.305,10.475c-2.691,2.732-6.375,4.389-10.475,4.389
			c-4.057,0-7.783-1.656-10.434-4.389c-2.607-2.69-4.305-6.375-4.305-10.475C518.059,178.07,519.756,174.386,522.363,171.695z
			 M540.291,174.676c-1.946-1.945-4.637-3.146-7.494-3.146c-2.855,0-5.506,1.201-7.411,3.146c-1.904,1.904-3.104,4.555-3.104,7.493
			c0,2.939,1.2,5.59,3.104,7.493c1.905,1.946,4.556,3.147,7.411,3.147c2.857,0,5.548-1.201,7.494-3.147
			c1.862-1.903,3.063-4.512,3.063-7.493S542.153,176.58,540.291,174.676z"/>
		<path fill="#999999" d="M550.186,196.659v-29.021l3.229,0.042l14.117,20.41v-20.41h4.141v28.979h-3.313l-13.993-20.244v20.244
			H550.186z"/>
	</g>
</g>
<text transform="matrix(1 0 0 1 429.1367 78.0195)" display="none" fill="#999999" font-family="'Code-Bold'" font-size="34.5">fashion</text>
</svg>
