<?xml version="1.0" encoding="utf-8"?>
<!-- Generator: Adobe Illustrator 16.0.3, SVG Export Plug-In . SVG Version: 6.00 Build 0)  -->
<!DOCTYPE svg PUBLIC "-//W3C//DTD SVG 1.1//EN" "http://www.w3.org/Graphics/SVG/1.1/DTD/svg11.dtd">
<svg version="1.1" id="Layer_1" xmlns="http://www.w3.org/2000/svg" xmlns:xlink="http://www.w3.org/1999/xlink" x="0px" y="0px"
	 width="600px" height="250px" viewBox="0 0 600 250" enable-background="new 0 0 600 250" xml:space="preserve">
<g display="none">
	
		<text transform="matrix(1 0 0 1 64.479 86.1255)" display="inline" fill="#FD6D6D" font-family="'Code-Bold'" font-size="202.6189">Ava</text>
	<polygon display="inline" fill="#FD6D6D" points="116,-37 153,29 90,29 	"/>
	<polygon display="inline" fill="#FD6D6D" points="335,-30 372,36 309,36 	"/>
</g>
<text transform="matrix(1 0 0 1 64.479 86.1255)" display="none" fill="#FD6D6D" font-family="'Code-Bold'" font-size="202.6189">Ava</text>
<g>
	<path fill="#0AB3A3" d="M96.248,74.968H83.231L33.804,199.681h19.174c3.869-10.202,36.938-96.393,36.938-96.393l36.763,96.393
		h18.997L96.248,74.968z"/>
	<path fill="#0AB3A3" d="M285.34,74.968h-13.017l-49.428,124.713h19.173c3.87-10.202,36.938-96.393,36.938-96.393l36.763,96.393
		h18.997L285.34,74.968z"/>
	<path fill="#0AB3A3" d="M221.313,76.727h18.997l-49.428,123.305h-13.017L128.438,76.727h19.349l36.587,91.995L221.313,76.727z"/>
	<path display="none" fill="#0AB3A3" d="M300.994,163.445h-44.15c-4.749,11.257-10.905,26.033-14.775,36.235h-19.174l49.428-124.713
		h13.017l49.428,124.713H315.77L300.994,163.445z M263.527,146.734h30.606l-15.127-43.447L263.527,146.734z"/>
	<circle fill="#0AB3A3" cx="278.815" cy="155.731" r="11.72"/>
	<circle fill="#0AB3A3" cx="89.566" cy="154.863" r="11.72"/>
</g>
<g>
	<path fill="#999999" d="M364.344,198.255h-5.514v-38.162h22.767v5.514h-17.253v10.756h15.287v5.568h-15.287V198.255z"/>
	<path fill="#999999" d="M402.289,187.008h-13.703c-1.475,3.494-3.385,8.08-4.586,11.247h-5.951l15.342-38.709h4.04l15.341,38.709
		h-5.896L402.289,187.008z M390.66,181.821h9.5l-4.695-13.485L390.66,181.821z"/>
	<path fill="#999999" d="M433.631,169.92c-0.765-3.439-4.478-4.914-7.808-4.859c-2.566,0.055-5.405,0.928-6.934,2.894
		c-0.765,0.982-1.037,2.238-0.928,3.549c0.272,3.931,4.586,4.422,8.681,4.805c5.241,0.655,11.738,2.02,13.212,8.135
		c0.164,0.818,0.273,1.747,0.273,2.511c0,7.371-7.316,11.629-14.195,11.629c-5.896,0-13.049-3.494-13.758-10.318l-0.055-1.037
		l5.568-0.109l0.055,0.819v-0.219c0.382,3.549,4.695,5.405,8.244,5.405c4.095,0,8.571-2.293,8.571-6.225
		c0-0.382-0.055-0.818-0.164-1.31c-0.655-2.894-4.586-3.385-8.407-3.768c-5.951-0.601-12.939-1.911-13.54-9.882v0.055
		c-0.219-2.566,0.437-5.132,2.075-7.261c2.565-3.331,7.151-5.078,11.574-5.078c5.896,0,12.011,3.058,12.993,10.046L433.631,169.92z"
		/>
	<path fill="#999999" d="M449.628,176.198h16.16v-16.105h5.569v38.162h-5.569v-16.597h-16.16v16.597h-5.514v-38.162h5.514V176.198z"
		/>
	<path fill="#999999" d="M492.869,165.552h-7.098v27.188h7.098v5.515h-19.71v-5.515h7.098v-27.188h-7.098v-5.459h19.71V165.552z"/>
	<path fill="#999999" d="M498.274,165.334c3.494-3.549,8.408-5.788,13.759-5.788c5.405,0,10.264,2.239,13.813,5.788
		c3.439,3.548,5.678,8.407,5.678,13.813s-2.238,10.264-5.678,13.813c-3.549,3.604-8.407,5.787-13.813,5.787
		c-5.351,0-10.265-2.184-13.759-5.787c-3.439-3.549-5.678-8.407-5.678-13.813S494.835,168.882,498.274,165.334z M521.915,169.265
		c-2.566-2.566-6.115-4.149-9.882-4.149c-3.768,0-7.262,1.583-9.772,4.149c-2.512,2.511-4.095,6.005-4.095,9.882
		c0,3.876,1.583,7.37,4.095,9.882c2.511,2.565,6.005,4.149,9.772,4.149c3.767,0,7.315-1.584,9.882-4.149
		c2.457-2.512,4.04-5.951,4.04-9.882S524.372,171.775,521.915,169.265z"/>
	<path fill="#999999" d="M534.966,198.255v-38.271l4.258,0.055l18.617,26.915v-26.915h5.46v38.217h-4.368l-18.453-26.697v26.697
		H534.966z"/>
</g>
<text transform="matrix(1 0 0 1 429.1367 78.0195)" display="none" fill="#999999" font-family="'Code-Bold'" font-size="34.5">fashion</text>
<circle fill="#0AB3A3" cx="920" cy="125" r="90.363"/>
<path display="none" fill="#0AB3A3" d="M1036.994,151.445h-44.15c-4.749,11.257-10.905,26.033-14.775,36.235h-19.174l49.428-124.713
	h13.017l49.428,124.713h-18.997L1036.994,151.445z M999.527,134.734h30.606l-15.127-43.447L999.527,134.734z"/>
<g>
	<path fill="#FFFFFF" d="M926.508,57.644h-13.016l-49.428,124.713h19.174c3.869-10.202,36.938-96.393,36.938-96.393l36.764,96.393
		h18.996L926.508,57.644z"/>
	<circle fill="#FFFFFF" cx="920" cy="137.863" r="11.72"/>
</g>
</svg>
